<svg xmlns="http://www.w3.org/2000/svg" viewBox="0 0 800 200" fill="none">
  <defs>
    <pattern id="grid-us" width="24" height="24" patternUnits="userSpaceOnUse">
      <path d="M 24 0 L 0 0 0 24" fill="none" stroke="#eef2f7" stroke-width="0.75"/>
    </pattern>
  </defs>
  <rect width="800" height="200" fill="#fafafa"/>
  <rect width="800" height="200" fill="url(#grid-us)"/>
  <g transform="translate(400,88)">
    <path d="M -50,-28 L -10,-28 Q 0,-44 10,-28 L 50,-28" stroke="#94a3b8" stroke-width="1.5" fill="none"/>
    <path d="M -50,-28 L -50,28 L 50,28 L 50,-28" stroke="#cbd5e1" stroke-width="1.5" fill="none"/>
    <path d="M -20,28 Q -15,0 0,-8 Q 15,0 20,28" stroke="#cbd5e1" stroke-width="1" fill="none"/>
    <path d="M -35,28 Q -28,8 0,-2 Q 28,8 35,28" stroke="#cbd5e1" stroke-width="0.75" fill="none"/>
    <line x1="-65" y1="0" x2="-50" y2="0" stroke="#94a3b8" stroke-width="1.5"/>
    <circle cx="-65" cy="0" r="2" fill="#94a3b8"/>
    <path d="M -55,-42 L -50,-28" stroke="#94a3b8" stroke-width="1" fill="none"/>
    <path d="M 55,-42 L 50,-28" stroke="#94a3b8" stroke-width="1" fill="none"/>
  </g>
  <text x="400" y="168" text-anchor="middle" font-family="Inter, Helvetica Neue, Arial, sans-serif" font-size="11" font-weight="600" letter-spacing="0.16em" text-transform="uppercase" fill="#94a3b8">Ultrasound</text>
</svg>
